<svg id="Calque_1" data-name="Calque 1" xmlns="http://www.w3.org/2000/svg" viewBox="0 0 706 496.37"><defs><style>.cls-1{stroke:#fff;stroke-miterlimit:10;}</style></defs><title>clip</title><polygon class="cls-1" points="705.5 0.5 705.5 441.75 683 481.75 665.5 456.75 653 468 629.25 449.25 610.5 468 604.25 441.75 589.25 476.75 573 441.75 565.5 481.75 549.25 441.75 538 468 530.5 441.75 510.5 456.75 504.25 441.75 484.25 459.25 484.25 441.75 474.25 461.75 468 441.75 458 468 451.75 441.75 446.75 468 434.25 441.75 428 468 413 441.75 404.25 461.75 394.25 448 379.25 471.75 379.25 441.75 353 494.25 353 441.75 330.5 481.75 313 456.75 300.5 468 276.75 449.25 258 468 251.75 441.75 236.75 476.75 220.5 441.75 213 481.75 196.75 441.75 185.5 468 178 441.75 158 456.75 151.75 441.75 131.75 459.25 131.75 441.75 121.75 461.75 115.5 441.75 105.5 468 99.25 441.75 94.25 468 81.75 441.75 75.5 468 60.5 441.75 51.75 461.75 41.75 448 26.75 471.75 26.75 441.75 0.5 494.25 0.5 0.5 705.5 0.5"/></svg>